<mxfile host="app.diagrams.net" modified="2024-03-20T14:07:57.417Z" agent="Mozilla/5.0 (Windows NT 10.0; Win64; x64) AppleWebKit/537.36 (KHTML, like Gecko) Chrome/122.0.0.0 Safari/537.36" etag="BtGoeU_rpjJithEPzVIw" version="23.0.2" type="device">
  <diagram id="6a731a19-8d31-9384-78a2-239565b7b9f0" name="Page-1">
    <mxGraphModel dx="3776" dy="1356" grid="1" gridSize="10" guides="1" tooltips="1" connect="1" arrows="1" fold="1" page="1" pageScale="1" pageWidth="1169" pageHeight="827" background="none" math="0" shadow="0">
      <root>
        <mxCell id="0" />
        <mxCell id="1" parent="0" />
        <mxCell id="1354" value="Web Servers" style="ellipse;whiteSpace=wrap;html=1;shadow=0;fontFamily=Helvetica;fontSize=20;fontColor=#FFFFFF;align=center;strokeWidth=3;fillColor=#736ca8;strokeColor=none;" parent="1" vertex="1">
          <mxGeometry x="1310" y="520" width="150" height="140" as="geometry" />
        </mxCell>
        <mxCell id="1364" style="endArrow=none;strokeWidth=6;strokeColor=#736ca8;html=1;" parent="1" source="1515" target="1354" edge="1">
          <mxGeometry relative="1" as="geometry" />
        </mxCell>
        <mxCell id="1462" value="Examples" style="rounded=1;fillColor=#a29dc5;strokeColor=none;strokeWidth=3;shadow=0;html=1;fontColor=#FFFFFF;fontSize=17;" parent="1" vertex="1">
          <mxGeometry x="1050" y="471.5" width="220" height="48.5" as="geometry" />
        </mxCell>
        <mxCell id="1503" value="" style="edgeStyle=none;endArrow=none;strokeWidth=3;strokeColor=#F08E81;html=1;" parent="1" source="1356" edge="1">
          <mxGeometry x="188.5" y="51.5" width="100" height="100" as="geometry">
            <mxPoint x="188.5" y="151.5" as="sourcePoint" />
            <mxPoint x="1350.8661417322833" y="1100" as="targetPoint" />
          </mxGeometry>
        </mxCell>
        <mxCell id="1515" value="Topics" style="ellipse;whiteSpace=wrap;html=1;shadow=0;fontFamily=Helvetica;fontSize=30;fontColor=#2F5B7C;align=center;strokeColor=#2F5B7C;strokeWidth=6;fillColor=#FFFFFF;fontStyle=1;gradientColor=none;" parent="1" vertex="1">
          <mxGeometry x="961" y="676.5" width="270" height="270" as="geometry" />
        </mxCell>
        <mxCell id="dE3JFqHrWZk-7uI6yQrM-1552" style="endArrow=none;strokeWidth=3;strokeColor=#736ca8;html=1;exitX=1;exitY=0.75;exitDx=0;exitDy=0;" parent="1" target="1354" edge="1" source="1462">
          <mxGeometry relative="1" as="geometry">
            <mxPoint x="1420" y="410" as="sourcePoint" />
            <mxPoint x="1730" y="1210" as="targetPoint" />
          </mxGeometry>
        </mxCell>
        <mxCell id="6J3C2WITVliitDzKt7-K-1516" style="endArrow=none;strokeWidth=6;strokeColor=#82b366;html=1;fillColor=#d5e8d4;" parent="1" source="1515" target="6J3C2WITVliitDzKt7-K-1517" edge="1">
          <mxGeometry relative="1" as="geometry">
            <mxPoint x="1137.5" y="474.5" as="sourcePoint" />
          </mxGeometry>
        </mxCell>
        <mxCell id="6J3C2WITVliitDzKt7-K-1517" value="Databricks" style="ellipse;whiteSpace=wrap;html=1;shadow=0;fontFamily=Helvetica;fontSize=20;align=center;strokeWidth=3;fillColor=#d5e8d4;strokeColor=#82b366;" parent="1" vertex="1">
          <mxGeometry x="640" y="816" width="120" height="120" as="geometry" />
        </mxCell>
        <mxCell id="6J3C2WITVliitDzKt7-K-1518" value="MapReduce vs Apache Spark" style="rounded=1;fillColor=#d5e8d4;strokeColor=#82b366;strokeWidth=3;shadow=0;html=1;fontSize=17;" parent="1" vertex="1">
          <mxGeometry x="250" y="760" width="270" height="56" as="geometry" />
        </mxCell>
        <mxCell id="6J3C2WITVliitDzKt7-K-1519" value="" style="edgeStyle=none;endArrow=none;strokeWidth=3;strokeColor=#82b366;html=1;exitX=0.048;exitY=0.342;exitDx=0;exitDy=0;fillColor=#d5e8d4;exitPerimeter=0;entryX=1;entryY=0.5;entryDx=0;entryDy=0;" parent="1" source="6J3C2WITVliitDzKt7-K-1517" target="6J3C2WITVliitDzKt7-K-1518" edge="1">
          <mxGeometry x="188.5" y="51.5" width="100" height="100" as="geometry">
            <mxPoint x="592.5" y="413.5" as="sourcePoint" />
            <mxPoint x="245" y="-709" as="targetPoint" />
          </mxGeometry>
        </mxCell>
        <mxCell id="NRRngdHiU2P55wIIcluO-1516" value="IIS" style="whiteSpace=wrap;html=1;fontSize=20;fillColor=#736ca8;strokeColor=none;fontColor=#FFFFFF;shadow=0;strokeWidth=3;" vertex="1" parent="1">
          <mxGeometry x="930" y="350" width="120" height="60" as="geometry" />
        </mxCell>
        <mxCell id="NRRngdHiU2P55wIIcluO-1518" style="endArrow=none;strokeWidth=3;strokeColor=#736ca8;html=1;exitX=0.5;exitY=1;exitDx=0;exitDy=0;entryX=0.489;entryY=0.003;entryDx=0;entryDy=0;entryPerimeter=0;" edge="1" parent="1" source="NRRngdHiU2P55wIIcluO-1516" target="1462">
          <mxGeometry relative="1" as="geometry">
            <mxPoint x="1489" y="430" as="sourcePoint" />
            <mxPoint x="1430" y="370" as="targetPoint" />
          </mxGeometry>
        </mxCell>
        <mxCell id="NRRngdHiU2P55wIIcluO-1519" style="endArrow=none;strokeWidth=3;strokeColor=#736ca8;html=1;exitX=0.451;exitY=0.976;exitDx=0;exitDy=0;exitPerimeter=0;" edge="1" parent="1" source="NRRngdHiU2P55wIIcluO-1520" target="1462">
          <mxGeometry relative="1" as="geometry">
            <mxPoint x="1470" y="300" as="sourcePoint" />
            <mxPoint x="1400" y="365" as="targetPoint" />
          </mxGeometry>
        </mxCell>
        <mxCell id="NRRngdHiU2P55wIIcluO-1520" value="Apache" style="whiteSpace=wrap;html=1;fontSize=20;fillColor=#736ca8;strokeColor=none;fontColor=#FFFFFF;shadow=0;strokeWidth=3;" vertex="1" parent="1">
          <mxGeometry x="1030" y="250" width="120" height="60" as="geometry" />
        </mxCell>
        <mxCell id="NRRngdHiU2P55wIIcluO-1521" value="Iterative Method" style="rounded=1;fillColor=#f9f7ed;strokeColor=#36393d;strokeWidth=3;shadow=0;html=1;fontSize=17;" vertex="1" parent="1">
          <mxGeometry x="520" y="611.5" width="160" height="56" as="geometry" />
        </mxCell>
        <mxCell id="NRRngdHiU2P55wIIcluO-1522" value="" style="edgeStyle=none;endArrow=none;strokeWidth=3;strokeColor=#82b366;html=1;fillColor=#d5e8d4;exitX=0.5;exitY=0;exitDx=0;exitDy=0;entryX=0;entryY=0.5;entryDx=0;entryDy=0;" edge="1" parent="1" target="NRRngdHiU2P55wIIcluO-1521" source="6J3C2WITVliitDzKt7-K-1518">
          <mxGeometry x="188.5" y="51.5" width="100" height="100" as="geometry">
            <mxPoint x="911.4000000000001" y="239.72000000000014" as="sourcePoint" />
            <mxPoint x="455" y="-839" as="targetPoint" />
          </mxGeometry>
        </mxCell>
        <mxCell id="NRRngdHiU2P55wIIcluO-1523" value="Directed Acyclic Graph (DAG)" style="rounded=1;fillColor=#f9f7ed;strokeColor=#36393d;strokeWidth=3;shadow=0;html=1;fontSize=17;" vertex="1" parent="1">
          <mxGeometry x="520" y="541.5" width="250" height="56" as="geometry" />
        </mxCell>
        <mxCell id="NRRngdHiU2P55wIIcluO-1524" value="" style="edgeStyle=none;endArrow=none;strokeWidth=3;strokeColor=#82b366;html=1;fillColor=#d5e8d4;entryX=0;entryY=0.5;entryDx=0;entryDy=0;exitX=0.5;exitY=0;exitDx=0;exitDy=0;" edge="1" parent="1" target="NRRngdHiU2P55wIIcluO-1523" source="6J3C2WITVliitDzKt7-K-1518">
          <mxGeometry x="188.5" y="51.5" width="100" height="100" as="geometry">
            <mxPoint x="783" y="230" as="sourcePoint" />
            <mxPoint x="455" y="-909" as="targetPoint" />
          </mxGeometry>
        </mxCell>
        <mxCell id="NRRngdHiU2P55wIIcluO-1525" value="Fault Tolerance" style="rounded=1;fillColor=#f9f7ed;strokeColor=#36393d;strokeWidth=3;shadow=0;html=1;fontSize=17;" vertex="1" parent="1">
          <mxGeometry x="520" y="471.5" width="160" height="56" as="geometry" />
        </mxCell>
        <mxCell id="NRRngdHiU2P55wIIcluO-1526" value="" style="edgeStyle=none;endArrow=none;strokeWidth=3;strokeColor=#82b366;html=1;fillColor=#d5e8d4;entryX=0;entryY=0.5;entryDx=0;entryDy=0;exitX=0.5;exitY=0;exitDx=0;exitDy=0;" edge="1" parent="1" target="NRRngdHiU2P55wIIcluO-1525" source="6J3C2WITVliitDzKt7-K-1518">
          <mxGeometry x="188.5" y="51.5" width="100" height="100" as="geometry">
            <mxPoint x="783" y="230" as="sourcePoint" />
            <mxPoint x="455" y="-979" as="targetPoint" />
          </mxGeometry>
        </mxCell>
        <mxCell id="NRRngdHiU2P55wIIcluO-1527" value="Parallel Computing" style="rounded=1;fillColor=#eeeeee;strokeColor=#36393d;strokeWidth=3;shadow=0;html=1;fontSize=17;" vertex="1" parent="1">
          <mxGeometry x="190" y="555.5" width="160" height="56" as="geometry" />
        </mxCell>
        <mxCell id="NRRngdHiU2P55wIIcluO-1528" value="" style="edgeStyle=none;endArrow=none;strokeWidth=3;strokeColor=#82b366;html=1;fillColor=#d5e8d4;entryX=1;entryY=1;entryDx=0;entryDy=0;exitX=0.5;exitY=0;exitDx=0;exitDy=0;" edge="1" parent="1" target="NRRngdHiU2P55wIIcluO-1527" source="6J3C2WITVliitDzKt7-K-1518">
          <mxGeometry x="188.5" y="51.5" width="100" height="100" as="geometry">
            <mxPoint x="620.0000000000005" y="365" as="sourcePoint" />
            <mxPoint x="35" y="-844" as="targetPoint" />
          </mxGeometry>
        </mxCell>
        <mxCell id="NRRngdHiU2P55wIIcluO-1529" value="Data Parallelism" style="rounded=1;fillColor=#eeeeee;strokeColor=#36393d;strokeWidth=3;shadow=0;html=1;fontSize=17;" vertex="1" parent="1">
          <mxGeometry x="50" y="441.75" width="160" height="56" as="geometry" />
        </mxCell>
        <mxCell id="NRRngdHiU2P55wIIcluO-1530" value="" style="edgeStyle=none;endArrow=none;strokeWidth=3;strokeColor=#82b366;html=1;fillColor=#d5e8d4;entryX=1;entryY=0.5;entryDx=0;entryDy=0;exitX=0.592;exitY=0.029;exitDx=0;exitDy=0;exitPerimeter=0;" edge="1" parent="1" target="NRRngdHiU2P55wIIcluO-1529" source="NRRngdHiU2P55wIIcluO-1527">
          <mxGeometry x="188.5" y="51.5" width="100" height="100" as="geometry">
            <mxPoint x="520" y="120" as="sourcePoint" />
            <mxPoint x="-135" y="-923" as="targetPoint" />
          </mxGeometry>
        </mxCell>
        <mxCell id="NRRngdHiU2P55wIIcluO-1531" value="Gustafson&#39;s Law" style="rounded=1;fillColor=#eeeeee;strokeColor=#36393d;strokeWidth=3;shadow=0;html=1;fontSize=17;" vertex="1" parent="1">
          <mxGeometry x="50" y="361.25" width="160" height="56" as="geometry" />
        </mxCell>
        <mxCell id="NRRngdHiU2P55wIIcluO-1532" value="" style="edgeStyle=none;endArrow=none;strokeWidth=3;strokeColor=#82b366;html=1;fillColor=#d5e8d4;entryX=1;entryY=0.5;entryDx=0;entryDy=0;exitX=0.6;exitY=0.037;exitDx=0;exitDy=0;exitPerimeter=0;" edge="1" parent="1" target="NRRngdHiU2P55wIIcluO-1531" source="NRRngdHiU2P55wIIcluO-1527">
          <mxGeometry x="188.5" y="51.5" width="100" height="100" as="geometry">
            <mxPoint x="545" y="70.5" as="sourcePoint" />
            <mxPoint x="-135" y="-1003.5" as="targetPoint" />
          </mxGeometry>
        </mxCell>
        <mxCell id="NRRngdHiU2P55wIIcluO-1533" value="Amdahl&#39;s Law" style="rounded=1;fillColor=#eeeeee;strokeColor=#36393d;strokeWidth=3;shadow=0;html=1;fontSize=17;" vertex="1" parent="1">
          <mxGeometry x="50" y="280.75" width="160" height="56" as="geometry" />
        </mxCell>
        <mxCell id="NRRngdHiU2P55wIIcluO-1534" value="" style="edgeStyle=none;endArrow=none;strokeWidth=3;strokeColor=#82b366;html=1;fillColor=#d5e8d4;entryX=1.019;entryY=0.075;entryDx=0;entryDy=0;entryPerimeter=0;exitX=0.613;exitY=0.022;exitDx=0;exitDy=0;exitPerimeter=0;" edge="1" parent="1" target="NRRngdHiU2P55wIIcluO-1533" source="NRRngdHiU2P55wIIcluO-1527">
          <mxGeometry x="188.5" y="51.5" width="100" height="100" as="geometry">
            <mxPoint x="510" y="130" as="sourcePoint" />
            <mxPoint x="-135" y="-1084" as="targetPoint" />
          </mxGeometry>
        </mxCell>
        <mxCell id="NRRngdHiU2P55wIIcluO-1535" value="Matrix Multiplication Example" style="rounded=1;fillColor=#eeeeee;strokeColor=#36393d;strokeWidth=3;shadow=0;html=1;fontSize=17;" vertex="1" parent="1">
          <mxGeometry x="-270" y="771" width="270" height="56" as="geometry" />
        </mxCell>
        <mxCell id="NRRngdHiU2P55wIIcluO-1536" value="" style="edgeStyle=none;endArrow=none;strokeWidth=3;strokeColor=#82b366;html=1;fillColor=#d5e8d4;entryX=0.5;entryY=0;entryDx=0;entryDy=0;exitX=0.5;exitY=1;exitDx=0;exitDy=0;" edge="1" parent="1" target="NRRngdHiU2P55wIIcluO-1535" source="NRRngdHiU2P55wIIcluO-1529">
          <mxGeometry x="188.5" y="51.5" width="100" height="100" as="geometry">
            <mxPoint x="385" y="325" as="sourcePoint" />
            <mxPoint x="-295" y="-749" as="targetPoint" />
          </mxGeometry>
        </mxCell>
        <mxCell id="NRRngdHiU2P55wIIcluO-1537" style="endArrow=none;strokeWidth=3;strokeColor=#736ca8;html=1;exitX=0.451;exitY=0.976;exitDx=0;exitDy=0;exitPerimeter=0;entryX=0.488;entryY=-0.009;entryDx=0;entryDy=0;entryPerimeter=0;" edge="1" parent="1" source="NRRngdHiU2P55wIIcluO-1538" target="1462">
          <mxGeometry relative="1" as="geometry">
            <mxPoint x="1640" y="221" as="sourcePoint" />
            <mxPoint x="1570" y="286" as="targetPoint" />
          </mxGeometry>
        </mxCell>
        <mxCell id="NRRngdHiU2P55wIIcluO-1538" value="Nginx" style="whiteSpace=wrap;html=1;fontSize=20;fillColor=#736ca8;strokeColor=none;fontColor=#FFFFFF;shadow=0;strokeWidth=3;" vertex="1" parent="1">
          <mxGeometry x="1180" y="250" width="120" height="60" as="geometry" />
        </mxCell>
        <mxCell id="NRRngdHiU2P55wIIcluO-1539" style="endArrow=none;strokeWidth=3;strokeColor=#736ca8;html=1;exitX=0.451;exitY=0.976;exitDx=0;exitDy=0;exitPerimeter=0;entryX=0.49;entryY=0.016;entryDx=0;entryDy=0;entryPerimeter=0;" edge="1" parent="1" source="NRRngdHiU2P55wIIcluO-1540" target="1462">
          <mxGeometry relative="1" as="geometry">
            <mxPoint x="1700" y="221" as="sourcePoint" />
            <mxPoint x="1430" y="360" as="targetPoint" />
          </mxGeometry>
        </mxCell>
        <mxCell id="NRRngdHiU2P55wIIcluO-1540" value="Litespeed" style="whiteSpace=wrap;html=1;fontSize=20;fillColor=#736ca8;strokeColor=none;fontColor=#FFFFFF;shadow=0;strokeWidth=3;" vertex="1" parent="1">
          <mxGeometry x="1260" y="350" width="120" height="60" as="geometry" />
        </mxCell>
        <mxCell id="NRRngdHiU2P55wIIcluO-1541" value="Features" style="rounded=1;fillColor=#a29dc5;strokeColor=none;strokeWidth=3;shadow=0;html=1;fontColor=#FFFFFF;fontSize=17;" vertex="1" parent="1">
          <mxGeometry x="1500" y="365" width="220" height="48.5" as="geometry" />
        </mxCell>
        <mxCell id="NRRngdHiU2P55wIIcluO-1542" style="endArrow=none;strokeWidth=3;strokeColor=#736ca8;html=1;entryX=1;entryY=0;entryDx=0;entryDy=0;exitX=0.5;exitY=1;exitDx=0;exitDy=0;" edge="1" parent="1" source="NRRngdHiU2P55wIIcluO-1541" target="1354">
          <mxGeometry relative="1" as="geometry">
            <mxPoint x="1650" y="485" as="sourcePoint" />
            <mxPoint x="1647" y="602" as="targetPoint" />
          </mxGeometry>
        </mxCell>
        <mxCell id="NRRngdHiU2P55wIIcluO-1543" value="Customisation" style="rounded=1;fillColor=#dae8fc;strokeColor=#6c8ebf;strokeWidth=3;shadow=0;html=1;fontSize=17;" vertex="1" parent="1">
          <mxGeometry x="1820" y="186" width="220" height="48.5" as="geometry" />
        </mxCell>
        <mxCell id="NRRngdHiU2P55wIIcluO-1544" style="endArrow=none;strokeWidth=3;strokeColor=#736ca8;html=1;entryX=0.5;entryY=0;entryDx=0;entryDy=0;exitX=0;exitY=0.5;exitDx=0;exitDy=0;" edge="1" parent="1" source="NRRngdHiU2P55wIIcluO-1543" target="NRRngdHiU2P55wIIcluO-1541">
          <mxGeometry relative="1" as="geometry">
            <mxPoint x="1750" y="390" as="sourcePoint" />
            <mxPoint x="1649.44" y="402.6764999999996" as="targetPoint" />
          </mxGeometry>
        </mxCell>
        <mxCell id="NRRngdHiU2P55wIIcluO-1545" value="Security" style="rounded=1;fillColor=#dae8fc;strokeColor=#6c8ebf;strokeWidth=3;shadow=0;html=1;fontSize=17;" vertex="1" parent="1">
          <mxGeometry x="1760" y="102" width="220" height="48.5" as="geometry" />
        </mxCell>
        <mxCell id="NRRngdHiU2P55wIIcluO-1546" style="endArrow=none;strokeWidth=3;strokeColor=#736ca8;html=1;entryX=0.5;entryY=0;entryDx=0;entryDy=0;exitX=0;exitY=0.5;exitDx=0;exitDy=0;" edge="1" parent="1" source="NRRngdHiU2P55wIIcluO-1545" target="NRRngdHiU2P55wIIcluO-1541">
          <mxGeometry relative="1" as="geometry">
            <mxPoint x="1750" y="320" as="sourcePoint" />
            <mxPoint x="1660" y="370" as="targetPoint" />
          </mxGeometry>
        </mxCell>
        <mxCell id="NRRngdHiU2P55wIIcluO-1547" value="Reliability" style="rounded=1;fillColor=#dae8fc;strokeColor=#6c8ebf;strokeWidth=3;shadow=0;html=1;fontSize=17;" vertex="1" parent="1">
          <mxGeometry x="1610" y="21.5" width="220" height="48.5" as="geometry" />
        </mxCell>
        <mxCell id="NRRngdHiU2P55wIIcluO-1548" style="endArrow=none;strokeWidth=3;strokeColor=#736ca8;html=1;entryX=0.5;entryY=0;entryDx=0;entryDy=0;exitX=0.25;exitY=1;exitDx=0;exitDy=0;" edge="1" parent="1" source="NRRngdHiU2P55wIIcluO-1547" target="NRRngdHiU2P55wIIcluO-1541">
          <mxGeometry relative="1" as="geometry">
            <mxPoint x="1750" y="250" as="sourcePoint" />
            <mxPoint x="1660" y="300" as="targetPoint" />
          </mxGeometry>
        </mxCell>
        <mxCell id="NRRngdHiU2P55wIIcluO-1549" value="Scalability" style="rounded=1;fillColor=#dae8fc;strokeColor=#6c8ebf;strokeWidth=3;shadow=0;html=1;fontSize=17;" vertex="1" parent="1">
          <mxGeometry x="1380" y="102" width="220" height="48.5" as="geometry" />
        </mxCell>
        <mxCell id="NRRngdHiU2P55wIIcluO-1550" style="endArrow=none;strokeWidth=3;strokeColor=#736ca8;html=1;exitX=0.423;exitY=0.984;exitDx=0;exitDy=0;entryX=0.5;entryY=0;entryDx=0;entryDy=0;exitPerimeter=0;" edge="1" parent="1" source="NRRngdHiU2P55wIIcluO-1549" target="NRRngdHiU2P55wIIcluO-1541">
          <mxGeometry relative="1" as="geometry">
            <mxPoint x="1750" y="180" as="sourcePoint" />
            <mxPoint x="1660" y="440" as="targetPoint" />
          </mxGeometry>
        </mxCell>
        <mxCell id="NRRngdHiU2P55wIIcluO-1551" value="Functions" style="rounded=1;fillColor=#a29dc5;strokeColor=none;strokeWidth=3;shadow=0;html=1;fontColor=#FFFFFF;fontSize=17;" vertex="1" parent="1">
          <mxGeometry x="1561" y="565.75" width="220" height="48.5" as="geometry" />
        </mxCell>
        <mxCell id="NRRngdHiU2P55wIIcluO-1552" style="endArrow=none;strokeWidth=3;strokeColor=#736ca8;html=1;entryX=1;entryY=0.5;entryDx=0;entryDy=0;" edge="1" parent="1" source="NRRngdHiU2P55wIIcluO-1551" target="1354">
          <mxGeometry relative="1" as="geometry">
            <mxPoint x="1661" y="625" as="sourcePoint" />
            <mxPoint x="1460" y="690" as="targetPoint" />
          </mxGeometry>
        </mxCell>
        <mxCell id="NRRngdHiU2P55wIIcluO-1553" value="Content Hosting" style="rounded=1;fillColor=#b0e3e6;strokeWidth=3;shadow=0;html=1;fontSize=17;strokeColor=#0e8088;" vertex="1" parent="1">
          <mxGeometry x="1860" y="390" width="140" height="28.5" as="geometry" />
        </mxCell>
        <mxCell id="NRRngdHiU2P55wIIcluO-1554" style="endArrow=none;strokeWidth=3;strokeColor=#736ca8;html=1;exitX=0;exitY=1;exitDx=0;exitDy=0;entryX=0.996;entryY=0.271;entryDx=0;entryDy=0;entryPerimeter=0;" edge="1" parent="1" source="NRRngdHiU2P55wIIcluO-1553" target="NRRngdHiU2P55wIIcluO-1551">
          <mxGeometry relative="1" as="geometry">
            <mxPoint x="1982" y="515" as="sourcePoint" />
            <mxPoint x="1781" y="580" as="targetPoint" />
          </mxGeometry>
        </mxCell>
        <mxCell id="NRRngdHiU2P55wIIcluO-1555" value="Security" style="rounded=1;fillColor=#b0e3e6;strokeWidth=3;shadow=0;html=1;fontSize=17;strokeColor=#0e8088;" vertex="1" parent="1">
          <mxGeometry x="1860" y="448.5" width="120" height="30" as="geometry" />
        </mxCell>
        <mxCell id="NRRngdHiU2P55wIIcluO-1556" style="endArrow=none;strokeWidth=3;strokeColor=#736ca8;html=1;exitX=0;exitY=0.5;exitDx=0;exitDy=0;entryX=1;entryY=0.25;entryDx=0;entryDy=0;" edge="1" parent="1" source="NRRngdHiU2P55wIIcluO-1555" target="NRRngdHiU2P55wIIcluO-1551">
          <mxGeometry relative="1" as="geometry">
            <mxPoint x="1982" y="583.5" as="sourcePoint" />
            <mxPoint x="1781" y="648.5" as="targetPoint" />
          </mxGeometry>
        </mxCell>
        <mxCell id="NRRngdHiU2P55wIIcluO-1557" value="Load Balancing" style="rounded=1;fillColor=#b0e3e6;strokeWidth=3;shadow=0;html=1;fontSize=17;strokeColor=#0e8088;" vertex="1" parent="1">
          <mxGeometry x="1860" y="508.5" width="150" height="28.5" as="geometry" />
        </mxCell>
        <mxCell id="NRRngdHiU2P55wIIcluO-1558" style="endArrow=none;strokeWidth=3;strokeColor=#736ca8;html=1;exitX=0;exitY=0.5;exitDx=0;exitDy=0;entryX=1;entryY=0.25;entryDx=0;entryDy=0;" edge="1" parent="1" source="NRRngdHiU2P55wIIcluO-1557" target="NRRngdHiU2P55wIIcluO-1551">
          <mxGeometry relative="1" as="geometry">
            <mxPoint x="1982" y="655" as="sourcePoint" />
            <mxPoint x="1780" y="580" as="targetPoint" />
          </mxGeometry>
        </mxCell>
        <mxCell id="NRRngdHiU2P55wIIcluO-1559" value="Logging/ Monitoring" style="rounded=1;fillColor=#b0e3e6;strokeWidth=3;shadow=0;html=1;fontSize=17;strokeColor=#0e8088;" vertex="1" parent="1">
          <mxGeometry x="1860" y="568.5" width="170" height="30" as="geometry" />
        </mxCell>
        <mxCell id="NRRngdHiU2P55wIIcluO-1560" style="endArrow=none;strokeWidth=3;strokeColor=#736ca8;html=1;exitX=0;exitY=0.5;exitDx=0;exitDy=0;entryX=1;entryY=0.25;entryDx=0;entryDy=0;" edge="1" parent="1" source="NRRngdHiU2P55wIIcluO-1559" target="NRRngdHiU2P55wIIcluO-1551">
          <mxGeometry relative="1" as="geometry">
            <mxPoint x="1982" y="723.5" as="sourcePoint" />
            <mxPoint x="1781" y="720" as="targetPoint" />
          </mxGeometry>
        </mxCell>
        <mxCell id="NRRngdHiU2P55wIIcluO-1561" value="Caching" style="rounded=1;fillColor=#b0e3e6;strokeWidth=3;shadow=0;html=1;fontSize=17;strokeColor=#0e8088;" vertex="1" parent="1">
          <mxGeometry x="1860" y="618.5" width="100" height="30" as="geometry" />
        </mxCell>
        <mxCell id="NRRngdHiU2P55wIIcluO-1562" style="endArrow=none;strokeWidth=3;strokeColor=#736ca8;html=1;exitX=0;exitY=0.5;exitDx=0;exitDy=0;entryX=1;entryY=0.25;entryDx=0;entryDy=0;" edge="1" parent="1" source="NRRngdHiU2P55wIIcluO-1561" target="NRRngdHiU2P55wIIcluO-1551">
          <mxGeometry relative="1" as="geometry">
            <mxPoint x="1982" y="793.5" as="sourcePoint" />
            <mxPoint x="1781" y="790" as="targetPoint" />
          </mxGeometry>
        </mxCell>
      </root>
    </mxGraphModel>
  </diagram>
</mxfile>
